<svg xmlns="http://www.w3.org/2000/svg" xmlns:xlink="http://www.w3.org/1999/xlink" height="50" width="220.82857841538976">
  <defs>
    <rect id="rect-1" opacity="1" x="0" y="0" width="220.82857841538976" height="50"/>
    <mask id="mask-2" maskUnits="userSpaceOnUse" maskContentUnits="userSpaceOnUse">
      <rect opacity="1" x="0" y="0" width="220.82857841538976" height="50" fill="Black"/>
      <use xlink:href="#rect-1" fill="White"/>
    </mask>
  </defs>
  <g opacity="1">
    <g/>
    <g mask="url(#mask-2)">
      <g opacity="1">
        <g opacity="1">
          <g opacity="1">
            <path fill="rgb(175,175,175)" fill-opacity="1" opacity="1" fill-rule="evenodd" d="M19.03011744124806 6.535650911690211C20.536611823129626 7.147154259988472 21.873075042010512 7.690580246294309 23.210268741691987 8.232228624815038C25.6702208372 9.228662436357261 28.14249548544058 10.196261066940894 30.58400685962231 11.235725840836709C31.383061937247653 11.575919841488812 32.10442270070982 11.578927980236273 32.91963300393773 11.34114550675931C40.62997855584262 9.092186363522371 48.3492795515538 6.873777306814486 56.06090893130348 4.629172832384448C56.926953487497215 4.377097389079791 57.61448640615989 4.919901055905303 58.39738312307195 5.029700471520663C59.087163916129555 5.126440583381414 59.758469501642836 5.3631790649845845 60.432913332998965 5.555583945724972C60.74894033257258 5.645741892603656 61.09822458679245 5.693254495748799 61.10531463971311 6.172584710691991C61.11229496375816 6.644558388302285 60.7853985352763 6.711212410022332 60.46287872137648 6.815677434727004C56.20366149582407 8.195262534172716 51.9454490732613 9.577990582127372 47.684690940784066 10.95284479947833C44.41693524115276 12.007279727119974 41.14593156680298 13.051693273306425 37.72774384891279 14.148243710967884C39.5094225753054 14.888111033081703 41.15790455468891 15.56788768779315 42.80262753630463 16.256580597426716C47.267308946352024 18.126078478091863 51.73032090993458 19.99954227383313 56.194223244965066 21.87087889694266C56.72217745980793 22.09220674174214 57.28229320809616 22.257458428431708 57.772991334553986 22.5421123749091C58.47442063153676 22.949016829274424 59.01402805297088 22.712027538812684 59.64511643801264 22.353026008878647C61.61387976223326 21.233062564269783 63.618109026610874 20.174998745955723 65.61025557422693 19.095989252840422C70.39599270146228 16.50388753730783 75.18415483684889 13.916214165684343 79.96626934363327 11.3174832585087C80.36007687291522 11.103475897268702 80.76393399964891 11.038822076195741 81.17387794386903 11.1469128564621C83.35943260765976 11.723171289909967 85.53988958140006 12.318679303253 87.72121498081317 12.910821775225111C87.79354668806907 12.930460108851054 87.85625203782203 12.985412329763497 88.01065467382314 13.07385380351635C86.42680613729283 14.105287991271865 84.88493046324402 15.105739447217287 83.3467181660857 16.111777670487335C78.2508527501192 19.444621404028005 73.15706277745737 22.780612788743714 68.06097790373963 26.113127335657513C65.18636352235967 27.992939730631303 62.30448822452414 29.861791778485635 59.43656730455726 31.751681986907798C58.917109239798414 32.093992187304075 58.48574465150115 32.17341394748065 57.875743021243565 31.871063868475858C53.040446063555024 29.474420631536727 48.18554055579248 27.117032116074355 43.33236562915407 24.75635173434328C39.745838140503174 23.01180369190642 36.157666286273276 21.270487948634365 32.56162216899506 19.545568834491256C27.65075963733044 17.18996419703546 22.73521011512132 14.844007862857731 17.81505041258062 12.507775074615651C14.120079443706 10.753290298713365 10.41439736901512 9.02123567254397 6.7144102229691205 7.277237842040596C6.390081450176865 7.124365140076762 6.006974053823626 7.018519099094594 6.0985443680871265 6.516363710466268C6.177821913170019 6.0816179052444275 6.521900316019208 6.149717213011978 6.822148303278118 6.089518384289348C11.775427315592834 5.0963968172356 16.742430275137366 4.176828083067907 21.71253229164059 3.271334428532028C25.38348360964114 2.602530661382972 29.038801697976023 1.8487904742795633 32.7036238744953 1.1460757818966283C34.712616939630365 0.760860023576044 36.72153476210785 0.369994795716196 38.74068245090422 0.04459224749819246C40.041184382132435 -0.16499147249879798 41.233724072634296 0.4147939605226968 42.45618055729734 0.7328415389631673C42.779158097364046 0.8168703443605742 42.76668192420561 1.1029225502244853 42.759789383261065 1.3726988287226423C42.75125090918216 1.7064219608236677 42.51474912843927 1.6959052318728014 42.27580823154679 1.744444583782711C38.20932977602774 2.5705290185849483 34.14386552883053 3.4016296305585634 30.079884189009604 4.239854781670902C26.461011762935513 4.986276052770197 22.844230455719742 5.742773569762498 19.03011744124807 6.535650911690215L19.03011744124806 6.535650911690211Z"/>
          </g>
          <g opacity="1">
            <path fill="rgb(175,175,175)" fill-opacity="1" opacity="1" fill-rule="evenodd" d="M59.233184814453125 49.999969482421875C58.91532897949219 49.810813903808594 58.5506591796875 49.61204528808594 58.20457458496094 49.385093688964844C53.33074951171875 46.18894958496094 48.46038818359375 42.98753356933594 43.58726501464844 39.79032897949219C38.21391296386719 36.26493835449219 32.839935302734375 32.740501403808594 27.463714599609375 29.219467163085938C22.370529174804688 25.88379669189453 17.275970458984375 22.550201416015625 12.178482055664062 19.221099853515625C8.366378784179688 16.731475830078125 4.548614501953125 14.250503540039062 0.733551025390625 11.765396118164062C0.5809478759765625 11.665985107421875 0.424285888671875 11.5714111328125 0.2799530029296875 11.461021423339844C0.027252197265625 11.267768859863281 -0.11785888671875 11.052909851074219 0.1232147216796875 10.738212585449219C0.3347320556640625 10.462104797363281 0.5540924072265625 10.522285461425781 0.804351806640625 10.665374755859375C2.6568450927734375 11.724594116210938 4.511383056640625 12.780242919921875 6.364959716796875 13.83758544921875C9.212997436523438 15.46221923828125 12.060699462890625 17.087448120117188 14.908706665039062 18.71216583251953C18.45733642578125 20.736587524414062 22.003326416015625 22.76567840576172 25.555755615234375 24.783447265625C28.38446044921875 26.39014434814453 31.225357055664062 27.975479125976562 34.05317687988281 29.583694458007812C37.536712646484375 31.56482696533203 41.00950622558594 33.56475830078125 44.492156982421875 35.547454833984375C47.658447265625 37.35002899169922 50.832794189453125 39.13853454589844 54.00141906738281 40.93702697753906C55.336517333984375 41.69481658935547 56.67350769042969 42.44981384277344 57.99415588378906 43.23206329345703C58.47019958496094 43.5140380859375 58.80659484863281 43.551361083984375 59.30607604980469 43.16918182373047C63.06004333496094 40.296791076660156 66.8524169921875 37.47434997558594 70.62612915039062 34.62750244140625C75.39509582519531 31.029815673828125 80.15940856933594 27.42596435546875 84.92263793945312 23.820709228515625C88.65028381347656 20.999267578125 92.3739013671875 18.172523498535156 96.0965576171875 15.344551086425781C96.13401794433594 15.31610107421875 96.17013549804688 15.284767150878906 96.20576477050781 15.253875732421875C96.38398742675781 15.099334716796875 96.54971313476562 14.955635070800781 96.80657958984375 15.236724853515625C97.10983276367188 15.568603515625 96.92903137207031 15.797515869140625 96.67864990234375 16.02631378173828C94.912841796875 17.639923095703125 93.1495361328125 19.256263732910156 91.37950134277344 20.86522674560547C90.64810180664062 21.530059814453125 89.93722534179688 22.21624755859375 89.2027587890625 22.87871551513672C86.34432983398438 25.45690155029297 83.53567504882812 28.089859008789062 80.69929504394531 30.692459106445312C78.26618957519531 32.925018310546875 75.81997680664062 35.14337921142578 73.38052368164062 37.369049072265625C70.28790283203125 40.19062042236328 67.20095825195312 43.01835632324219 64.10212707519531 45.83311462402344C62.67875671386719 47.126007080078125 61.2330322265625 48.394447326660156 59.797149658203125 49.67364501953125C59.644317626953125 49.809791564941406 59.52348327636719 49.996917724609375 59.233184814453125 49.999969482421875ZM15.31207275390625 19.94573211669922C15.488296508789062 20.50829315185547 15.824050903320312 20.59710693359375 16.06903076171875 20.757362365722656C19.8997802734375 23.26318359375 23.744354248046875 25.747970581054688 27.575897216796875 28.252586364746094C34.58631896972656 32.83519744873047 41.59187316894531 37.42522430419922 48.59613037109375 42.017189025878906C51.68525695800781 44.04240417480469 54.76641845703125 46.07970428466797 57.85054016113281 48.11247253417969C57.88427734375 48.13470458984375 57.9178466796875 48.161094665527344 57.95170593261719 48.187713623046875C58.06813049316406 48.27922058105469 58.18798828125 48.3734130859375 58.329620361328125 48.31095886230469C58.482086181640625 48.24372863769531 58.460723876953125 48.099853515625 58.4403076171875 47.962379455566406C58.43304443359375 47.91350555419922 58.4259033203125 47.865440368652344 58.42674255371094 47.821922302246094C58.42988586425781 47.657386779785156 58.43853759765625 47.49131774902344 58.44718933105469 47.32502746582031C58.47137451171875 46.86029052734375 58.49565124511719 46.393798828125 58.400360107421875 45.954078674316406C58.360198974609375 45.768714904785156 58.35884094238281 45.56909942626953 58.35746765136719 45.368255615234375C58.35414123535156 44.879432678222656 58.35076904296875 44.38329315185547 57.787811279296875 44.0673828125C55.47361755371094 42.76874542236328 53.168243408203125 41.454490661621094 50.85939025878906 40.146400451660156C47.69024658203125 38.350929260253906 44.51826477050781 36.56043243408203 41.35267639160156 34.75877380371094C37.48661804199219 32.55845642089844 33.62725830078125 30.346458435058594 29.762496948242188 28.143875122070312C26.530471801757812 26.301895141601562 23.295608520507812 24.464881896972656 20.060501098632812 22.62830352783203C18.533645629882812 21.761512756347656 17.003280639648438 20.90088653564453 15.31207275390625 19.94573211669922ZM87.4320068359375 22.993438720703125L87.56851196289062 23.16602325439453C86.80393981933594 23.893516540527344 86.05233764648438 24.63518524169922 85.27200317382812 25.34546661376953C83.77351379394531 26.709442138671875 82.24795532226562 28.043930053710938 80.75288391113281 29.41155242919922C77.3575439453125 32.5174560546875 73.97721862792969 35.63969421386719 70.58399963378906 38.74791717529297C68.89775085449219 40.29254150390625 67.19328308105469 41.81737518310547 65.50297546386719 43.35760498046875C63.58154296875 45.108428955078125 61.666900634765625 46.86663055419922 59.748565673828125 48.620826721191406C59.72509765625 48.64228820800781 59.70188903808594 48.666954040527344 59.6783447265625 48.691986083984375C59.58984375 48.78606414794922 59.496490478515625 48.885284423828125 59.36616516113281 48.83885192871094C59.18983459472656 48.776023864746094 59.20426940917969 48.61939239501953 59.217742919921875 48.47325897216797C59.22137451171875 48.43389892578125 59.22492980957031 48.395294189453125 59.22467041015625 48.3594970703125C59.221038818359375 47.86048889160156 59.220672607421875 47.36144256591797 59.220306396484375 46.86241149902344C59.21977233886719 46.16407775878906 59.21925354003906 45.46575927734375 59.20982360839844 44.76756286621094C59.205078125 44.41633605957031 59.34620666503906 44.21772766113281 59.62846374511719 44.00616455078125C63.28501892089844 41.26545715332031 66.93072509765625 38.51033020019531 70.57354736328125 35.75145721435547C75.66508483886719 31.895408630371094 80.75149536132812 28.03264617919922 85.84126281738281 24.174285888671875C86.36747741699219 23.77538299560547 86.90158081054688 23.386802673339844 87.4320068359375 22.993438720703125Z"/>
          </g>
        </g>
        <g opacity="1">
          <g opacity="1">
            <path fill="rgb(175,175,175)" fill-opacity="1" opacity="1" fill-rule="evenodd" d="M112.59352975847119 4.3467354091946415L112.59352975847119 10.231038850292192L119.10072170249063 10.231038850292192L119.10072170249063 11.197443003686892L112.59352975847119 11.197443003686892L112.59352975847119 17.382397293772428L120.38920988939338 17.382397293772428L120.38920988939338 18.348801447167133L111.5198170349378 18.348801447167133L111.5198170349378 3.3804848762258146L120.38920988939338 3.3804848762258146L120.38920988939338 4.3467354091946415L112.59352975847119 4.3467354091946415Z"/>
          </g>
          <g opacity="1">
            <path fill="rgb(175,175,175)" fill-opacity="1" opacity="1" fill-rule="evenodd" d="M126.33810424804688 18.542144775390625C127.52618408203125 18.542144775390625 128.6358642578125 18.291854858398438 129.66671752929688 17.790512084960938L129.66671752929688 23.223838806152344L130.69757080078125 23.223838806152344L130.69757080078125 7.611045837402344L127.36880493164062 7.417858123779297C126.12335205078125 7.417858123779297 125.14239501953125 7.611045837402344 124.42674255371094 7.997577667236328C123.71061706542969 8.384262084960938 123.19534301757812 8.992912292480469 122.88046264648438 9.823074340820312C122.56541442871094 10.653541564941406 122.40805053710938 11.755882263183594 122.40805053710938 13.1302490234375C122.40805053710938 15.048973083496094 122.71206665039062 16.43053436279297 123.32072448730469 17.27508544921875C123.9290771484375 18.119949340820312 124.934814453125 18.542144775390625 126.33810424804688 18.542144775390625ZM129.66671752929688 16.824111938476562L129.2371826171875 17.017295837402344C128.2923583984375 17.40398406982422 127.36880493164062 17.59716796875 126.46685791015625 17.59716796875C125.73664855957031 17.59716796875 125.15692138671875 17.44684600830078 124.72738647460938 17.146194458007812C124.29783630371094 16.845542907714844 123.98646545410156 16.373130798339844 123.79327392578125 15.728813171386719C123.59992980957031 15.084487915039062 123.50334167480469 14.225547790527344 123.50334167480469 13.151840209960938C123.50334167480469 11.992088317871094 123.61769104003906 11.068702697753906 123.84686279296875 10.381362915039062C124.07571411132812 9.694183349609375 124.46591186523438 9.182430267333984 125.01731872558594 8.845958709716797C125.56826782226562 8.509635925292969 126.33810424804688 8.34124755859375 127.325927734375 8.34124755859375C127.92724609375 8.34124755859375 128.70733642578125 8.391609191894531 129.66671752929688 8.491573333740234L129.66671752929688 16.824111938476562Z"/>
          </g>
          <g opacity="1">
            <path fill="rgb(175,175,175)" fill-opacity="1" opacity="1" fill-rule="evenodd" d="M135.2073530887112 18.069734268014336C134.72039985202287 17.754845313636466 134.3805601188835 17.221356060796055 134.18721784003424 16.469725803215354C133.9940291816108 15.718095545634656 133.89728123197324 14.633511825637665 133.89728123197324 13.216129831205622L133.89728123197324 7.611047189686715L134.97114914348785 7.611047189686715L134.97114914348785 13.151834980311488C134.97114914348785 14.354444646484898 135.03559604725248 15.267116137041945 135.16433780191127 15.88985258709336C135.29323317699593 16.512741090015282 135.52943712221926 16.95300469012564 135.87310482556254 17.2106402523137C136.2167725289058 17.468275814501755 136.7320452208373 17.597171189586405 137.4193821950792 17.597171189586405C138.62199186125258 17.597171189586405 139.7742359735146 17.27508715607834 140.87688263399465 16.630767036191703L140.87688263399465 7.611047189686715L141.92916530811868 7.611047189686715L141.92916530811868 18.348801447167105L140.85545101702994 18.348801447167105L140.85545101702994 17.53272428582176C140.28261925961226 17.876391989165043 139.7280056306589 18.130660442426812 139.19099564846636 18.29522397231069C138.65413928669966 18.45963388176869 138.02772848687022 18.542145293571757 137.31192000451463 18.542145293571757C136.3955725966242 18.54214372601639 135.6938454641219 18.384469601966327 135.20735308871122 18.069734268014336L135.2073530887112 18.069734268014336Z"/>
          </g>
          <g opacity="1">
            <path fill="rgb(175,175,175)" fill-opacity="1" opacity="1" fill-rule="evenodd" d="M146.22433471679688 3.3160362243652344L145.1934814453125 3.3160362243652344L145.1934814453125 4.733417510986328L146.22433471679688 4.733417510986328L146.22433471679688 3.3160362243652344ZM146.22433471679688 7.611045837402344L145.1934814453125 7.611045837402344L145.1934814453125 18.348800659179688L146.22433471679688 18.348800659179688L146.22433471679688 7.611045837402344Z"/>
          </g>
          <g opacity="1">
            <path fill="rgb(175,175,175)" fill-opacity="1" opacity="1" fill-rule="evenodd" d="M150.56204223632812 7.611045837402344L149.509765625 7.611045837402344L149.509765625 23.223838806152344L150.58349609375 23.223838806152344L150.58349609375 18.28435516357422C151.41363525390625 18.456268310546875 152.26568603515625 18.542144775390625 153.13919067382812 18.542144775390625C154.29876708984375 18.542144775390625 155.22216796875 18.345436096191406 155.90948486328125 17.951553344726562C156.5966796875 17.5579833984375 157.09066772460938 16.94963836669922 157.39132690429688 16.126060485839844C157.69198608398438 15.302940368652344 157.84231567382812 14.211463928222656 157.84231567382812 12.851181030273438C157.84231567382812 10.947151184082031 157.5523681640625 9.565284729003906 156.97250366210938 8.706344604492188C156.39260864257812 7.847251892089844 155.4439697265625 7.417858123779297 154.12701416015625 7.417858123779297C152.90985107421875 7.417858123779297 151.7218017578125 7.7687225341796875 150.56204223632812 8.470142364501953L150.56204223632812 7.611045837402344ZM156.7684326171875 12.937065124511719C156.7684326171875 14.583610534667969 156.50344848632812 15.775505065917969 155.97393798828125 16.512741088867188C155.4439697265625 17.250289916992188 154.54904174804688 17.618606567382812 153.28948974609375 17.618606567382812C152.7451171875 17.618606567382812 151.84317016601562 17.525680541992188 150.58346557617188 17.33953857421875L150.58346557617188 9.414962768554688L151.0560302734375 9.135894775390625C151.42816162109375 8.949897766113281 151.90426635742188 8.774467468261719 152.484130859375 8.609752655029297C153.06399536132812 8.445343017578125 153.59716796875 8.362678527832031 154.083984375 8.362678527832031C154.9715576171875 8.362678527832031 155.64096069335938 8.717063903808594 156.09194946289062 9.425830841064453C156.54293823242188 10.134445190429688 156.7684326171875 11.304908752441406 156.7684326171875 12.937065124511719Z"/>
          </g>
          <g opacity="1">
            <path fill="rgb(175,175,175)" fill-opacity="1" opacity="1" fill-rule="evenodd" d="M160.63375854492188 16.31939697265625C160.89154052734375 17.099960327148438 161.33883666992188 17.665298461914062 161.97598266601562 18.016006469726562C162.61294555664062 18.366561889648438 163.51858520507812 18.542144775390625 164.69271850585938 18.542144775390625C165.88092041015625 18.542144775390625 166.79360961914062 18.366561889648438 167.43072509765625 18.016006469726562C168.06768798828125 17.665298461914062 168.51162719726562 17.09996795654297 168.76223754882812 16.31940460205078C169.01266479492188 15.539299011230469 169.1380615234375 14.461761474609375 169.1380615234375 13.087394714355469C169.1380615234375 11.655921936035156 169.00564575195312 10.5355224609375 168.74081420898438 9.726486206054688C168.47567749023438 8.917755126953125 168.02468872070312 8.33053207397461 167.38787841796875 7.965435028076172C166.75057983398438 7.600334167480469 165.852294921875 7.4178619384765625 164.69271850585938 7.4178619384765625C163.54705810546875 7.4178619384765625 162.65582275390625 7.596965789794922 162.01898193359375 7.954719543457031C161.3817138671875 8.312774658203125 160.92706298828125 8.896324157714844 160.65533447265625 9.704898834228516C160.38314819335938 10.513938903808594 160.24722290039062 11.641380310058594 160.24722290039062 13.087387084960938C160.24722290039062 14.461753845214844 160.37612915039062 15.539299011230469 160.63375854492188 16.31939697265625ZM167.78512573242188 15.803977966308594C167.61334228515625 16.426712036132812 167.29464721679688 16.881515502929688 166.82943725585938 17.167625427246094C166.36404418945312 17.454193115234375 165.66616821289062 17.59717559814453 164.73556518554688 17.59717559814453C163.79074096679688 17.59717559814453 163.07830810546875 17.454193115234375 162.598876953125 17.167625427246094C162.11895751953125 16.881515502929688 161.79348754882812 16.423492431640625 161.62173461914062 15.793258666992188C161.4498291015625 15.163482666015625 161.36395263671875 14.261375427246094 161.36395263671875 13.087387084960938C161.36395263671875 11.827682495117188 161.45687866210938 10.864646911621094 161.6431884765625 10.198890686035156C161.82901000976562 9.53314208984375 162.16195678710938 9.06072998046875 162.6417236328125 8.781509399414062C163.121337890625 8.502288818359375 163.8192138671875 8.362678527832031 164.73556518554688 8.362678527832031C165.63754272460938 8.362678527832031 166.32119750976562 8.502288818359375 166.78656005859375 8.781509399414062C167.25161743164062 9.06072998046875 167.577392578125 9.53314208984375 167.763671875 10.198890686035156C167.94952392578125 10.864646911621094 168.04290771484375 11.827682495117188 168.04290771484375 13.087387084960938C168.04290771484375 14.275917053222656 167.95703125 15.181236267089844 167.78512573242188 15.803977966308594Z"/>
          </g>
          <g opacity="1">
            <path fill="rgb(175,175,175)" fill-opacity="1" opacity="1" fill-rule="evenodd" d="M177.74917602539062 7.611045837402344L176.6968994140625 7.611045837402344L176.6968994140625 23.223838806152344L177.7706298828125 23.223838806152344L177.7706298828125 18.28435516357422C178.60076904296875 18.456268310546875 179.45281982421875 18.542144775390625 180.32632446289062 18.542144775390625C181.48590087890625 18.542144775390625 182.4093017578125 18.345436096191406 183.09661865234375 17.951553344726562C183.7838134765625 17.5579833984375 184.27780151367188 16.94963836669922 184.57846069335938 16.126060485839844C184.87911987304688 15.302940368652344 185.02944946289062 14.211463928222656 185.02944946289062 12.851181030273438C185.02944946289062 10.947151184082031 184.739501953125 9.565284729003906 184.15963745117188 8.706344604492188C183.57974243164062 7.847251892089844 182.631103515625 7.417858123779297 181.31414794921875 7.417858123779297C180.09698486328125 7.417858123779297 178.908935546875 7.7687225341796875 177.74917602539062 8.470142364501953L177.74917602539062 7.611045837402344ZM183.95559692382812 12.937065124511719C183.95559692382812 14.583610534667969 183.69061279296875 15.775505065917969 183.16110229492188 16.512741088867188C182.63113403320312 17.250289916992188 181.7362060546875 17.618606567382812 180.47665405273438 17.618606567382812C179.93228149414062 17.618606567382812 179.03033447265625 17.525680541992188 177.7706298828125 17.33953857421875L177.7706298828125 9.414962768554688L178.24319458007812 9.135894775390625C178.61532592773438 8.949897766113281 179.0914306640625 8.774467468261719 179.67129516601562 8.609752655029297C180.25115966796875 8.445343017578125 180.78433227539062 8.362678527832031 181.27114868164062 8.362678527832031C182.15872192382812 8.362678527832031 182.828125 8.717063903808594 183.27911376953125 9.425830841064453C183.7301025390625 10.134445190429688 183.95559692382812 11.304908752441406 183.95559692382812 12.937065124511719Z"/>
          </g>
          <g opacity="1">
            <path fill="rgb(175,175,175)" fill-opacity="1" opacity="1" fill-rule="evenodd" d="M187.19815063476562 15.42816162109375C187.19815063476562 16.415992736816406 187.445068359375 17.182167053222656 187.93905639648438 17.72606658935547C188.43307495117188 18.27027130126953 189.15237426757812 18.542144775390625 190.09735107421875 18.542144775390625C191.52883911132812 18.542144775390625 192.917724609375 18.241493225097656 194.26364135742188 17.640182495117188C194.49249267578125 17.9267578125 194.81121826171875 18.14856719970703 195.21932983398438 18.305938720703125C195.62728881835938 18.463302612304688 196.0889892578125 18.542144775390625 196.60440063476562 18.542144775390625L196.64743041992188 17.66162109375C196.18893432617188 17.604515075683594 195.83132934570312 17.497207641601562 195.57354736328125 17.33953094482422C195.31591796875 17.182167053222656 195.17965698242188 16.98882293701172 195.16558837890625 16.759658813476562L195.16558837890625 10.8109130859375C195.16558837890625 9.63723373413086 194.90045166015625 8.778141021728516 194.37094116210938 8.233936309814453C193.84112548828125 7.689884185791016 193.01065063476562 7.417858123779297 191.87985229492188 7.417858123779297C190.67724609375 7.417858123779297 189.30270385742188 7.554100036621094 187.75643920898438 7.8258209228515625L187.82089233398438 8.706344604492188C188.98062133789062 8.57745361328125 189.83221435546875 8.491573333740234 190.3765869140625 8.448558807373047C190.92047119140625 8.405693054199219 191.50738525390625 8.384262084960938 192.13748168945312 8.384262084960938C192.75286865234375 8.384262084960938 193.23614501953125 8.581123352050781 193.587158203125 8.974849700927734C193.93771362304688 9.368728637695312 194.11331176757812 9.980751037597656 194.11331176757812 10.8109130859375L194.11331176757812 11.841766357421875L190.26913452148438 12.228294372558594C189.19540405273438 12.357192993164062 188.41485595703125 12.6759033203125 187.9283447265625 13.183982849121094C187.44140625 13.692367553710938 187.19815063476562 14.440322875976562 187.19815063476562 15.42816162109375ZM194.11331176757812 16.824111938476562L193.53341674804688 17.017295837402344C192.41668701171875 17.418373107910156 191.29995727539062 17.618606567382812 190.1832275390625 17.618606567382812C188.9376220703125 17.618606567382812 188.31488037109375 16.845542907714844 188.31488037109375 15.299263000488281C188.31488037109375 14.597999572753906 188.47592163085938 14.068183898925781 188.79800415039062 13.710128784179688C189.1202392578125 13.352371215820312 189.65341186523438 13.144798278808594 190.39801025390625 13.087387084960938L194.11331176757812 12.7222900390625L194.11331176757812 16.824111938476562Z"/>
          </g>
          <g opacity="1">
            <path fill="rgb(175,175,175)" fill-opacity="1" opacity="1" fill-rule="evenodd" d="M198.53720122394736 7.611047189686761L199.5894838980714 7.611047189686761L199.5894838980714 9.200339846003384C200.8061764816534 8.312772754633716 202.1880439417121 7.704426462842688 203.73432131122874 7.374841676908048L203.73432131122874 8.47013963783203C203.14710096310603 8.584798475082161 202.49206503473707 8.785182212635773 201.7692135261218 9.071444470918737C201.04605634421014 9.35801240249808 200.51991422337045 9.615649532241502 200.19078873115808 9.844506345464147L199.6109155150361 10.166742431842719L199.6109155150361 18.34879987961179L198.53720122394736 18.34879987961179L198.53720122394736 7.611047189686761L198.53720122394736 7.611047189686761Z"/>
          </g>
          <g opacity="1">
            <path fill="rgb(175,175,175)" fill-opacity="1" opacity="1" fill-rule="evenodd" d="M205.06552124023438 15.42816162109375C205.06552124023438 16.415992736816406 205.31243896484375 17.182167053222656 205.80642700195312 17.72606658935547C206.30044555664062 18.27027130126953 207.01974487304688 18.542144775390625 207.9647216796875 18.542144775390625C209.39620971679688 18.542144775390625 210.78509521484375 18.241493225097656 212.13101196289062 17.640182495117188C212.35986328125 17.9267578125 212.6785888671875 18.14856719970703 213.08670043945312 18.305938720703125C213.49465942382812 18.463302612304688 213.95635986328125 18.542144775390625 214.47177124023438 18.542144775390625L214.51480102539062 17.66162109375C214.05630493164062 17.604515075683594 213.69869995117188 17.497207641601562 213.44091796875 17.33953094482422C213.18328857421875 17.182167053222656 213.04702758789062 16.98882293701172 213.032958984375 16.759658813476562L213.032958984375 10.8109130859375C213.032958984375 9.63723373413086 212.767822265625 8.778141021728516 212.23831176757812 8.233936309814453C211.70849609375 7.689884185791016 210.87802124023438 7.417858123779297 209.74722290039062 7.417858123779297C208.54461669921875 7.417858123779297 207.17007446289062 7.554100036621094 205.62380981445312 7.8258209228515625L205.68826293945312 8.706344604492188C206.84799194335938 8.57745361328125 207.6995849609375 8.491573333740234 208.24395751953125 8.448558807373047C208.787841796875 8.405693054199219 209.374755859375 8.384262084960938 210.00485229492188 8.384262084960938C210.6202392578125 8.384262084960938 211.103515625 8.581123352050781 211.45452880859375 8.974849700927734C211.80508422851562 9.368728637695312 211.98068237304688 9.980751037597656 211.98068237304688 10.8109130859375L211.98068237304688 11.841766357421875L208.13650512695312 12.228294372558594C207.06277465820312 12.357192993164062 206.2822265625 12.6759033203125 205.79571533203125 13.183982849121094C205.30877685546875 13.692367553710938 205.06552124023438 14.440322875976562 205.06552124023438 15.42816162109375ZM211.98068237304688 16.824111938476562L211.40078735351562 17.017295837402344C210.2840576171875 17.418373107910156 209.16732788085938 17.618606567382812 208.05059814453125 17.618606567382812C206.80499267578125 17.618606567382812 206.1822509765625 16.845542907714844 206.1822509765625 15.299263000488281C206.1822509765625 14.597999572753906 206.34329223632812 14.068183898925781 206.66537475585938 13.710128784179688C206.98760986328125 13.352371215820312 207.52078247070312 13.144798278808594 208.265380859375 13.087387084960938L211.98068237304688 12.7222900390625L211.98068237304688 16.824111938476562Z"/>
          </g>
          <g opacity="1">
            <path fill="rgb(175,175,175)" fill-opacity="1" opacity="1" fill-rule="evenodd" d="M112.50765123774181 37.107879160291944C111.89195781395007 36.73573838127963 111.45536856361774 36.14897575932382 111.19773143387432 35.34698151538713C110.93994225126039 34.54529294474681 110.81104687617574 33.464537194953735 110.81104687617574 32.104101351859754C110.81104687617574 31.073250294700422 110.88973031777489 30.167925936144073 111.04740444182495 29.3875153620426C111.20477289257863 28.607258408366995 111.57676005116507 27.930790863033295 112.16398196684315 27.358112726041497C112.75089664166947 26.78558820947557 113.63846373303915 26.499018710340863 114.82698891424855 26.499018710340863C115.27061962328519 26.499018710340863 115.70751454691391 26.517081650823922 116.13706077098655 26.552749805623147C116.56660699505919 26.58857158084825 117.1679118281459 26.670775751799567 117.9409737026913 26.799671126884213L117.87652679892666 27.68019675954956C116.74540706277757 27.55130138446491 115.87192288881654 27.48685448070027 115.25653513832118 27.48685448070027C114.38305096436015 27.48685448070027 113.70658341902646 27.62646409671191 113.22713250232007 27.905686463845914C112.74722229189145 28.184907263424556 112.40738099119669 28.657316721426607 112.2069972536431 29.323068458277955C112.0063078427931 29.9888201951293 111.90634483709974 30.93746708133732 111.90634483709974 32.168548255624394C111.90634483709974 33.32829468786838 112.00293916631145 34.23025036994307 112.19628144516074 34.874418436959196C112.38962372401002 35.51873855684583 112.73313780692745 35.987780905921596 113.22713250232009 36.281084622908885C113.72112719771275 36.574695580747914 114.43310927741979 36.721346655463876 115.36399889644115 36.721346655463876L117.91954208572662 36.52815799704046L117.96240531965604 37.43011524667051C116.65952854204825 37.58748369742419 115.70016584735787 37.66632075944923 115.08477809686251 37.66632075944923C113.98213300393782 37.66632075944923 113.12319104110767 37.48001993930426 112.50765123774183 37.107879160291944L112.50765123774181 37.107879160291944Z"/>
          </g>
          <g opacity="1">
            <path fill="rgb(175,175,175)" fill-opacity="1" opacity="1" fill-rule="evenodd" d="M120.30332946777344 35.443572998046875C120.56111145019531 36.22413635253906 121.0084228515625 36.78947448730469 121.64553833007812 37.14018249511719C122.28236389160156 37.49073791503906 123.18814086914062 37.66632080078125 124.36228942871094 37.66632080078125C125.55050659179688 37.66632080078125 126.46316528320312 37.49073791503906 127.10031127929688 37.14018249511719C127.73727416992188 36.78947448730469 128.18121337890625 36.224143981933594 128.43179321289062 35.443580627441406C128.6822509765625 34.663475036621094 128.8076171875 33.5859375 128.8076171875 32.211570739746094C128.8076171875 30.78009796142578 128.67520141601562 29.659698486328125 128.41036987304688 28.850662231445312C128.14523315429688 28.04193115234375 127.69424438476562 27.4547119140625 127.05743408203125 27.08960723876953C126.420166015625 26.724510192871094 125.52188110351562 26.542037963867188 124.36228942871094 26.542037963867188C123.21676635742188 26.542037963867188 122.32553100585938 26.721145629882812 121.68856811523438 27.078895568847656C121.05128479003906 27.43695068359375 120.59663391113281 28.02050018310547 120.32475280761719 28.829078674316406C120.052734375 29.63811492919922 119.91679382324219 30.76555633544922 119.91679382324219 32.21156311035156C119.91679382324219 33.58592987060547 120.04568481445312 34.663475036621094 120.30332946777344 35.443572998046875ZM127.45468139648438 34.92815399169922C127.28292846679688 35.55088806152344 126.96420288085938 36.00569152832031 126.49899291992188 36.29180145263672C126.03363037109375 36.578369140625 125.33572387695312 36.721351623535156 124.4051513671875 36.721351623535156C123.46017456054688 36.721351623535156 122.74787902832031 36.578369140625 122.26828002929688 36.29180145263672C121.78852844238281 36.00569152832031 121.46307373046875 35.54766845703125 121.29130554199219 34.91743469238281C121.11955261230469 34.28765869140625 121.03352355957031 33.38555145263672 121.03352355957031 32.21156311035156C121.03352355957031 30.951858520507812 121.12660217285156 29.98882293701172 121.312744140625 29.32306671142578C121.49858093261719 28.657318115234375 121.83139038085938 28.184906005859375 122.31129455566406 27.905685424804688C122.7908935546875 27.62646484375 123.48880004882812 27.486854553222656 124.4051513671875 27.486854553222656C125.30709838867188 27.486854553222656 125.99076843261719 27.62646484375 126.45614624023438 27.905685424804688C126.92120361328125 28.184906005859375 127.2469482421875 28.657318115234375 127.43325805664062 29.32306671142578C127.61907958984375 29.98882293701172 127.71246337890625 30.951858520507812 127.71246337890625 32.21156311035156C127.71246337890625 33.40009307861328 127.6265869140625 34.30541229248047 127.45468139648438 34.92815399169922Z"/>
          </g>
          <g opacity="1">
            <path fill="rgb(175,175,175)" fill-opacity="1" opacity="1" fill-rule="evenodd" d="M131.6420832183794 26.73522422311956L132.69436589250344 26.73522422311956L132.69436589250344 27.5513013844649C133.3815492463195 27.179160605452584 134.01852223420542 26.917849125931127 134.6057425823281 26.767523701437135C135.19250363672853 26.61719827694314 135.80100354894543 26.542033997140777 136.43108713099755 26.542033997140777C137.34712729803624 26.542033997140777 138.05252721276122 26.70307523011713 138.54636828772797 27.02515926362519C139.04036298312062 27.347243297133254 139.3840306864639 27.884253279325826 139.5772193448873 28.635883536906526C139.7705616237366 29.387513794487223 139.8671559529483 30.464902435354023 139.8671559529483 31.867894271525678L139.8671559529483 37.47297691304459L138.83630489578897 37.47297691304459L138.83630489578897 31.889327456045763C138.83630489578897 30.729734644227644 138.7681836422463 29.842167552857973 138.63240042888322 29.226474129066244C138.49615792179785 28.611086378570896 138.25658530009287 28.167149996237868 137.9129175967496 27.89497065536355C137.56924989340632 27.623096987785615 137.06086503975328 27.48685448070026 136.3882254646235 27.48685448070026C135.80100511650082 27.48685448070026 135.19954666298824 27.56569154272529 134.5841589124929 27.723059993478973C133.96846548870118 27.88088773795491 133.50309748940344 28.045296079857543 133.18836058789609 28.217054688871613L132.7157975094682 28.45326020165033L132.7157975094682 37.472980048155335L131.64208321837944 37.472980048155335L131.64208321837944 26.735224223119562L131.6420832183794 26.73522422311956Z"/>
          </g>
          <g opacity="1">
            <path fill="rgb(175,175,175)" fill-opacity="1" opacity="1" fill-rule="evenodd" d="M143.21734625416974 37.40853157683533L142.57317818715364 37.30122143914126L142.659056707883 36.35624890271127C144.27682243986862 36.59995516791656 145.50086372300674 36.72134822301927 146.33133104261248 36.72134822301927C147.33340335080638 36.72134822301927 148.07095069097844 36.549591181560565 148.54336014898047 36.205921910661914C149.01576960698253 35.86240626018915 149.25197511976123 35.311313360587924 149.25197511976123 34.55233440345116C149.25197511976123 34.00843501542477 149.13394917358482 33.596646058538816 148.8977436608061 33.31757887938605C148.6613860951569 33.03835807980741 148.36073367861354 32.84164869203183 147.99578641117606 32.7269898547817C147.63068709086807 32.612484637957444 147.1259765869931 32.5122159589677 146.48165646710643 32.42633743823835C146.3813877881167 32.397710742143445 146.21667220536233 32.36923766647441 145.98781539213968 32.34030529708312C145.05692577311834 32.18293684632944 144.34111729076275 32.004138346166414 143.8402331895363 31.803448935316425C143.33889136214296 31.603218818188687 142.9811391738357 31.33103947731437 142.76636527802168 30.987371773971084C142.55174500263354 30.64385612349831 142.4442812445136 30.178795365052324 142.4442812445136 29.59157344937426C142.4442812445136 28.460759386521563 142.78427616563422 27.673155300845252 143.46441649319058 27.22921891851223C144.14425114745055 26.785588209475584 145.12871980888366 26.563467181660883 146.41720642823105 26.563467181660883C147.56256270221465 26.563467181660883 148.55743993127837 26.63526278498159 149.40229740914447 26.77824107747488L149.96073900830174 26.885551215168945L149.9177237215018 27.809092134634223C148.45747849314037 27.58023532141158 147.27630044393166 27.46542443129094 146.374344761857 27.46542443129094C145.3719667803667 27.46542443129094 144.64559454239927 27.630140014045327 144.19461670136192 27.95941912668358C143.74363886032458 28.288850292192347 143.51814915602824 28.782844987584987 143.51814915602824 29.441248024880267C143.51814915602824 29.89957456547368 143.6254592937223 30.250131674650774 143.8402331895363 30.493530699004314C144.0550070853503 30.737083343783727 144.33744294098472 30.912209061724084 144.6884577763287 31.019672819844022C145.0391669383763 31.126982957538086 145.5509189009556 31.23811949788069 146.22401933736302 31.35247266183444C146.32398234305637 31.38140503122573 146.47430776755036 31.40987810689476 146.67499717840033 31.438351182563796C147.61996971483032 31.610261844448374 148.33930049409344 31.792734694389434 148.83329362193072 31.98607697323872C149.32713469689747 32.17926563166213 149.6992754759098 32.46216078101881 149.95002319981938 32.83430156003113C150.20031163000672 33.20674957989519 150.32583832860973 33.73625880966118 150.32583832860973 34.42344216347724C150.32583832860973 35.56910411075722 149.99288643374882 36.395898648140275 149.32713469689747 36.90397626094156C148.66138296004613 37.41220749416872 147.63405263223896 37.666322327004615 146.24544938677235 37.666322327004615C145.37196991547745 37.66632075944925 144.36270252815333 37.5804422387199 143.21734625416974 37.408531576835315L143.21734625416974 37.40853157683533Z"/>
          </g>
          <g opacity="1">
            <path fill="rgb(175,175,175)" fill-opacity="1" opacity="1" fill-rule="evenodd" d="M154.66356186200505 37.3656683429059C154.27703092473234 37.13681152968326 153.9978101251537 36.74660624263252 153.826053083695 36.195206102179554C153.65414242181043 35.64426525544884 153.56826390108108 34.860335519550574 153.56826390108108 33.84371943267038L153.56826390108108 27.680195191994194L151.93610801083503 27.680195191994194L151.93610801083503 26.735222655564208L153.56826390108108 26.735222655564208L153.56826390108108 23.320585450578122L154.59911495824042 23.320585450578122L154.59911495824042 26.735222655564208L158.35726781369928 26.735222655564208L158.35726781369928 27.680195191994194L154.59911495824042 27.680195191994194L154.59911495824042 33.113519224499036C154.59911495824042 34.10135499485845 154.63462949261378 34.835227985252466 154.70657871636035 35.31467890195884C154.7779150259588 35.79458911238748 154.93910987936104 36.1560156504728 155.18970398284478 36.399262621955835C155.43999241303214 36.64281526673525 155.8517813699181 36.76436194226383 156.4246131273358 36.76436194226383L158.46473157181924 36.59245128037925L158.5506100925486 37.494560582879814C157.54838573148416 37.63738525494724 156.7895588272179 37.70918085826794 156.27428770284178 37.70918085826794C155.58695072859985 37.70918399337867 155.0500927992778 37.59452515612855 154.66356186200508 37.3656683429059L154.66356186200505 37.3656683429059Z"/>
          </g>
          <g opacity="1">
            <path fill="rgb(175,175,175)" fill-opacity="1" opacity="1" fill-rule="evenodd" d="M160.35436940382746 26.735224223119577L161.4066520779515 26.735224223119577L161.4066520779515 28.324516879436196C162.62334466153354 27.436949788066528 164.00521212159225 26.828603496275502 165.55148949110892 26.499018710340863L165.55148949110892 27.594316671264842C164.9642691429862 27.708975508514975 164.30923321461722 27.909359246068586 163.58638170600196 28.195621504351546C162.86322452409027 28.48218943593089 162.33708240325058 28.73982656567431 162.00795691103818 28.968683378896955L161.4280836949162 29.290919465275522L161.4280836949162 37.472976913044576L160.35436940382743 37.472976913044576L160.35436940382743 26.735224223119573L160.35436940382746 26.735224223119577Z"/>
          </g>
          <g opacity="1">
            <path fill="rgb(175,175,175)" fill-opacity="1" opacity="1" fill-rule="evenodd" d="M168.75104712698467 37.1939113014472C168.26409389029635 36.87902234706932 167.92425415715695 36.34553309422891 167.73091187830767 35.59390283664822C167.53772321988424 34.842272579067526 167.44097527024667 33.75768885907053 167.44097527024667 32.340306864638485L167.44097527024667 26.735224223119587L168.5148431817613 26.735224223119587L168.5148431817613 32.27601201374435C168.5148431817613 33.47862167991776 168.57929008552594 34.3912931704748 168.70803184018473 35.01402962052622C168.83692721526936 35.63691812344814 169.07313116049272 36.0771817235585 169.41679886383602 36.33481728574656C169.76046656717935 36.59245284793462 170.2757392591108 36.72134822301926 170.96307623335272 36.72134822301926C172.16568589952615 36.72134822301926 173.31793001178818 36.3992641895112 174.42057667226825 35.754944069624564L174.42057667226825 26.735224223119587L175.4728593463923 26.735224223119587L175.4728593463923 37.47297848059996L174.39914505530356 37.47297848059996L174.39914505530356 36.65690131925462C173.8263132978859 37.00056902259791 173.2716996689325 37.254837475859674 172.73468968673993 37.41940100574355C172.19783332497323 37.58381091520155 171.57142252514376 37.666322327004615 170.85561404278818 37.666322327004615C169.9392666348977 37.66632075944925 169.2375410699508 37.50864663539919 168.7510471269847 37.193911301447194L168.75104712698467 37.1939113014472Z"/>
          </g>
          <g opacity="1">
            <path fill="rgb(175,175,175)" fill-opacity="1" opacity="1" fill-rule="evenodd" d="M180.02565931378703 37.107879160291944C179.40996588999528 36.73573838127963 178.97337663966297 36.14897575932382 178.71573950991956 35.34698151538713C178.4579503273056 34.54529294474681 178.329054952221 33.464537194953735 178.329054952221 32.104101351859754C178.329054952221 31.073250294700422 178.40758634094965 30.167925936144073 178.56541251787021 29.3875153620426C178.72278096862388 28.607258408366995 179.09492174763622 27.930790863033295 179.6821420957589 27.358112726041497C180.26890315015936 26.78558820947557 181.156470241529 26.499018710340863 182.34499542273844 26.499018710340863C182.78862613177506 26.499018710340863 183.22552105540376 26.517081650823922 183.6550672794764 26.552749805623147C184.08461350354906 26.58857158084825 184.68591833663578 26.670775751799567 185.4589802111812 26.799671126884213L185.39453330741657 27.68019675954956C184.26341357126748 27.55130138446491 183.38992939730645 27.48685448070027 182.7745416468111 27.48685448070027C181.90105747285008 27.48685448070027 181.22458992751635 27.62646409671191 180.74513901080996 27.905686463845914C180.26522880038132 28.184907263424556 179.9253874996866 28.657316721426607 179.72500376213296 29.323068458277955C179.52431435128298 29.9888201951293 179.4243513455896 30.93746708133732 179.4243513455896 32.168548255624394C179.4243513455896 33.32829468786838 179.5209456748013 34.23025036994307 179.7142879536506 34.874418436959196C179.9076302324999 35.51873855684583 180.2511443154173 35.987780905921596 180.74513901080996 36.281084622908885C181.23898008577672 36.574695580747914 181.95111578590965 36.721346655463876 182.88185178450513 36.721346655463876L185.43754859421645 36.52815799704046L185.48041182814586 37.43011524667051C184.17753505053807 37.58748369742419 183.21817235584768 37.66632075944923 182.60278460535233 37.66632075944923C181.50014107998302 37.66632075944923 180.6410470642824 37.48001993930426 180.02565931378703 37.107879160291944L180.02565931378703 37.107879160291944Z"/>
          </g>
          <g opacity="1">
            <path fill="rgb(175,175,175)" fill-opacity="1" opacity="1" fill-rule="evenodd" d="M189.1526892979861 37.107879160291944C188.53699587419433 36.73573838127963 188.10040662386203 36.14897575932382 187.8427694941186 35.34698151538713C187.58498031150467 34.54529294474681 187.45608493642004 33.464537194953735 187.45608493642004 32.104101351859754C187.45608493642004 31.073250294700422 187.5346163251487 30.167925936144073 187.69244250206927 29.3875153620426C187.84981095282293 28.607258408366995 188.22195173183528 27.930790863033295 188.80917207995796 27.358112726041497C189.3959331343584 26.78558820947557 190.28350022572806 26.499018710340863 191.47202540693746 26.499018710340863C191.91565611597412 26.499018710340863 192.35255103960282 26.517081650823922 192.78209726367547 26.552749805623147C193.21164348774812 26.58857158084825 193.8129483208348 26.670775751799567 194.58601019538023 26.799671126884213L194.5215632916156 27.68019675954956C193.3904435554665 27.55130138446491 192.51695938150547 27.48685448070027 191.9015716310101 27.48685448070027C191.0280874570491 27.48685448070027 190.3516199117154 27.62646409671191 189.872168995009 27.905686463845914C189.39225878458038 28.184907263424556 189.05241748388565 28.657316721426607 188.852033746332 29.323068458277955C188.651344335482 29.9888201951293 188.55138132978865 30.93746708133732 188.55138132978865 32.168548255624394C188.55138132978865 33.32829468786838 188.64797565900037 34.23025036994307 188.84131793784965 34.874418436959196C189.03466021669897 35.51873855684583 189.37817429961635 35.987780905921596 189.872168995009 36.281084622908885C190.36601006997577 36.574695580747914 191.0781457701087 36.721346655463876 192.00888176870416 36.721346655463876L194.56457857841548 36.52815799704046L194.6074418123449 37.43011524667051C193.3045650347371 37.58748369742419 192.3452023400467 37.66632075944923 191.72981458955138 37.66632075944923C190.62717106418205 37.66632075944923 189.76807704848144 37.48001993930426 189.1526892979861 37.107879160291944L189.1526892979861 37.107879160291944Z"/>
          </g>
          <g opacity="1">
            <path fill="rgb(175,175,175)" fill-opacity="1" opacity="1" fill-rule="evenodd" d="M198.17242431640625 22.440216064453125L197.14157104492188 22.440216064453125L197.14157104492188 23.85759735107422L198.17242431640625 23.85759735107422L198.17242431640625 22.440216064453125ZM198.17242431640625 26.73522186279297L197.14157104492188 26.73522186279297L197.14157104492188 37.47297668457031L198.17242431640625 37.47297668457031L198.17242431640625 26.73522186279297Z"/>
          </g>
          <g opacity="1">
            <path fill="rgb(175,175,175)" fill-opacity="1" opacity="1" fill-rule="evenodd" d="M207.64309692382812 21.71001434326172L203.32650756835938 23.771713256835938L203.69161987304688 24.523345947265625L208.05105590820312 22.611968994140625L207.64309692382812 21.71001434326172ZM202.60702514648438 37.14018249511719C201.96987915039062 36.78947448730469 201.5225830078125 36.22413635253906 201.26480102539062 35.443572998046875C201.00717163085938 34.663475036621094 200.87826538085938 33.58592987060547 200.87826538085938 32.21156311035156C200.87826538085938 30.76555633544922 201.01419067382812 29.63811492919922 201.286376953125 28.829078674316406C201.55810546875 28.02050018310547 202.01275634765625 27.43695068359375 202.6500244140625 27.078895568847656C203.286865234375 26.721145629882812 204.1781005859375 26.542037963867188 205.32376098632812 26.542037963867188C206.48333740234375 26.542037963867188 207.38162231445312 26.724510192871094 208.0189208984375 27.08960723876953C208.65573120117188 27.4547119140625 209.10671997070312 28.04193115234375 209.37185668945312 28.850662231445312C209.63668823242188 29.659698486328125 209.76910400390625 30.78009796142578 209.76910400390625 32.211570739746094C209.76910400390625 33.5859375 209.64370727539062 34.663475036621094 209.39328002929688 35.443580627441406C209.14266967773438 36.224143981933594 208.69873046875 36.78947448730469 208.061767578125 37.14018249511719C207.42465209960938 37.49073791503906 206.511962890625 37.66632080078125 205.32376098632812 37.66632080078125C204.14962768554688 37.66632080078125 203.24398803710938 37.49073791503906 202.60702514648438 37.14018249511719ZM207.46047973632812 36.29180145263672C207.92568969726562 36.00569152832031 208.244384765625 35.55088806152344 208.41616821289062 34.92815399169922C208.58807373046875 34.30541229248047 208.6739501953125 33.40009307861328 208.6739501953125 32.21156311035156C208.6739501953125 30.951858520507812 208.58056640625 29.98882293701172 208.39471435546875 29.32306671142578C208.20843505859375 28.657318115234375 207.88265991210938 28.184906005859375 207.4176025390625 27.905685424804688C206.95223999023438 27.62646484375 206.26858520507812 27.486854553222656 205.36660766601562 27.486854553222656C204.45025634765625 27.486854553222656 203.75238037109375 27.62646484375 203.27276611328125 27.905685424804688C202.79299926757812 28.184906005859375 202.46005249023438 28.657318115234375 202.27423095703125 29.32306671142578C202.08792114257812 29.98882293701172 201.9949951171875 30.951858520507812 201.9949951171875 32.21156311035156C201.9949951171875 33.38555145263672 202.08087158203125 34.28765869140625 202.25277709960938 34.91743469238281C202.42453002929688 35.54766845703125 202.75 36.00569152832031 203.22991943359375 36.29180145263672C203.7093505859375 36.578369140625 204.42178344726562 36.721351623535156 205.36660766601562 36.721351623535156C206.29721069335938 36.721351623535156 206.99508666992188 36.578369140625 207.46047973632812 36.29180145263672Z"/>
          </g>
          <g opacity="1">
            <path fill="rgb(175,175,175)" fill-opacity="1" opacity="1" fill-rule="evenodd" d="M212.60356211281388 26.73522422311956L213.65584478693793 26.73522422311956L213.65584478693793 27.5513013844649C214.34302814075403 27.179160605452584 214.9800011286399 26.917849125931127 215.56722147676265 26.767523701437135C216.15398253116308 26.61719827694314 216.76248244337998 26.542033997140777 217.39256602543213 26.542033997140777C218.30860619247082 26.542033997140777 219.01400610719583 26.70307523011713 219.5078471821626 27.02515926362519C220.00184187755525 27.347243297133254 220.34550958089852 27.884253279325826 220.53869823932195 28.635883536906526C220.73204051817126 29.387513794487223 220.82863484738294 30.464902435354023 220.82863484738294 31.867894271525678L220.82863484738294 37.47297691304459L219.79778379022358 37.47297691304459L219.79778379022358 31.889327456045763C219.79778379022358 30.729734644227644 219.72966253668093 29.842167552857973 219.59387932331782 29.226474129066244C219.45763681623245 28.611086378570896 219.21806419452747 28.167149996237868 218.87439649118417 27.89497065536355C218.53072878784087 27.623096987785615 218.02234393418786 27.48685448070026 217.34970435905802 27.48685448070026C216.7624840109353 27.48685448070026 216.16102555742273 27.56569154272529 215.54563780692737 27.723059993478973C214.92994438313562 27.88088773795491 214.46457638383788 28.045296079857543 214.14983948233055 28.217054688871613L213.67727640390262 28.45326020165033L213.67727640390262 37.472980048155335L212.60356211281385 37.472980048155335L212.60356211281385 26.735224223119562L212.60356211281388 26.73522422311956Z"/>
          </g>
        </g>
      </g>
    </g>
  </g>
</svg>