<?xml version="1.0" encoding="utf-8"?>
<!-- Generator: Adobe Illustrator 24.0.3, SVG Export Plug-In . SVG Version: 6.00 Build 0)  -->
<svg version="1.1" id="Capa_1" xmlns="http://www.w3.org/2000/svg" xmlns:xlink="http://www.w3.org/1999/xlink" x="0px" y="0px"
	 viewBox="0 0 219.7 60" style="enable-background:new 0 0 219.7 60;" xml:space="preserve">
<style type="text/css">
	.st0{fill-rule:evenodd;clip-rule:evenodd;fill:#FFFFFF;}
</style>
<g>
	<g>
		<path class="st0" d="M55.2,25.1L52,11.4l-13-6l0,0L27.6,0l-13,6l0,0L3.2,11.4L0,25.1L4,30l-4,4.9l3.2,13.7l11.4,5.3l0,0l13,6
			l12.9-6l0-0.1L52,48.6l3.2-13.7l-4-4.9L55.2,25.1z M53.8,24.8L50.3,29l-4.1-5h-5.9l3.5-4.2l-2.8-12l9.9,4.6L53.8,24.8z M39,53.1
			l-9.8-4.6L32.1,36h6.4l3.8,4.6l-2.9,12.3L39,53.1z M15.8,53l-2.9-12.3l3.8-4.6h6.4L26,48.5l-9.8,4.6L15.8,53z M16.2,6.9l9.9,4.6
			L23.1,24h-6.4l-3.7-4.6L15.8,7L16.2,6.9z M39.4,7l2.9,12.4L38.6,24h-6.5l-2.9-12.5L39,6.9L39.4,7z M34.2,29.4h-4.9l3.3-4h4.9
			L34.2,29.4z M27.9,12.4l2.9,12.4l-3.2,3.9l-3.2-3.9l2.9-12.4l0.4-0.2L27.9,12.4z M22.7,25.3l3.3,4.1h-5l-3.3-4.1H22.7z M19.8,30.1
			L16,34.7H9.6L5.8,30l3.9-4.7H16L19.8,30.1z M21.1,30.7H26l-3.3,4h-4.9L21.1,30.7z M27.2,47.6l-2.9-12.3l3.3-4l3.2,3.9L28,47.6
			l-0.4,0.2L27.2,47.6z M32.5,34.7l-3.3-4h4.9l3.3,4H32.5z M35.3,30l3.8-4.6h6.5l3.8,4.7l-3.8,4.7h-6.4L35.3,30z M37.4,6.1l-9.8,4.6
			l-9.8-4.6l9.8-4.6L37.4,6.1z M1.5,24.8l2.9-12.4l9.9-4.6l-2.8,12l3.5,4.2H9l-4.1,5L1.5,24.8z M4.4,47.6L1.5,35.2l3.4-4.2L9,36h5.9
			l-3.5,4.2l2.8,12L4.4,47.6z M17.8,53.9l9.8-4.6l9.9,4.6l-9.8,4.6L17.8,53.9z M53.7,35.2l-2.9,12.4L41,52.2l2.8-11.9L40.3,36h6
			l4.1-5L53.7,35.2z"/>
		<g>
			<g>
				<path class="st0" d="M201.8,25.7l-15.3,29.9h2.9l3.7-7.4h14.1l-0.8-1.5h-12.6l9.2-18.6l13.7,27.5h2.9l-15.3-29.9H201.8z"/>
			</g>
			<g>
				<path class="st0" d="M182.7,25.5h-28v1.6h12.6v28.4h2.8V27.1h12.6V25.5z"/>
			</g>
			<g>
				<path class="st0" d="M96.3,25.7L81,55.5h2.9l3.7-7.4h14.1l-0.8-1.5H88.4L97.6,28l13.7,27.5h2.9L98.8,25.7H96.3z"/>
			</g>
			<g>
				<path class="st0" d="M126.3,25.5v30h25.2V54H129V25.5H126.3z"/>
			</g>
			<g>
				<path class="st0" d="M105.8,13.8V9.9h0.6v4.2c-1.1,0.9-2.6,1.5-4.1,1.5c-3.3,0-6-2.6-6-5.9S99,4,102.4,4c1.6,0,3.1,0.6,4.1,1.5
					l-0.4,0.5c-1-0.9-2.3-1.4-3.7-1.4c-2.9,0-5.3,2.3-5.3,5.2s2.4,5.2,5.3,5.2C103.7,15,104.9,14.6,105.8,13.8z M143.6,4h0.7v6.9
					c0,3.1-1.7,4.8-4.7,4.8c-2.9,0-4.7-1.8-4.7-4.8V4h0.7v6.9c0,2.6,1.5,4.1,4,4.1s4-1.5,4-4.1V4z M176.8,4c-3.3,0-6,2.6-6,5.8
					s2.7,5.9,6,5.9s6-2.6,6-5.9S180.1,4,176.8,4z M125.3,15.7h-0.8l-2.8-3.9c-0.4,0.1-0.6,0.1-1,0.1h-3.4v3.9h-0.7V4.1h4.1
					c2.9,0,4.5,1.4,4.5,3.8c0,2-1,3.3-2.9,3.8L125.3,15.7z M154.4,4.1v11.6h0.7v-3.9h3.4c2.9,0,4.5-1.4,4.5-3.9
					c0-2.4-1.6-3.8-4.5-3.8H154.4z M117.3,11.1V4.7h3.5c2.4,0,3.8,1.1,3.8,3.2c0,2.1-1.4,3.2-3.8,3.2H117.3z M158.6,4.7h-3.4v6.4
					h3.4c2.4,0,3.8-1.1,3.8-3.2C162.4,5.8,161,4.7,158.6,4.7z M182.1,9.9c0-2.9-2.4-5.2-5.3-5.2c-2.9,0-5.3,2.3-5.3,5.2
					s2.4,5.2,5.3,5.2S182.1,12.7,182.1,9.9z"/>
			</g>
		</g>
	</g>
</g>
</svg>
